<svg xmlns="http://www.w3.org/2000/svg" width="192" height="183" viewBox="0 0 192 183">
  <defs>
    <style>
      .cls-1 {
        fill: #4a7628;
      }

      .cls-2 {
        fill: #ffce00;
      }

      .cls-3 {
        fill: #ab2c29;
      }

      .cls-4 {
        fill: #ff4a51;
      }

      .cls-5 {
        fill: #009bde;
      }

      .cls-6 {
        fill: #103a5d;
      }
    </style>
  </defs>
  <g id="gutes_192">
    <g>
      <path class="cls-1" d="M103.41,181.77a14,14,0,0,1-6.65-1.48l-7-2.92-10.71-5.13c-6.56-3.35-12.53-6.68-18.57-10.19Z"/>
      <g>
        <path class="cls-1" d="M136.8,14.34,103.43,44.68a52.33,52.33,0,0,1,3.85-7.29A51.78,51.78,0,0,1,126.4,18.56,41.76,41.76,0,0,1,136.8,14.34Z"/>
        <path class="cls-2" d="M180.26,25.42,136.83,14.33c.85-.23,1.7-.42,2.56-.59a43.88,43.88,0,0,1,30.06,3.5A37.61,37.61,0,0,1,180.26,25.42Z"/>
        <path class="cls-3" d="M191,58.23,180.32,25.64a46.24,46.24,0,0,1,7.81,13.89,51.2,51.2,0,0,1,2.77,14.6C191,55.5,191,56.87,191,58.23Z"/>
        <path class="cls-2" d="M191,58.24a73,73,0,0,1-3.32,21.52A190.27,190.27,0,0,1,180.13,99Z"/>
        <path class="cls-4" d="M60.35,162l-3.92-2.3a118.35,118.35,0,0,1-40.29-37.44Z"/>
        <path class="cls-1" d="M16.14,122.25c-.74-1.07-1.44-2.18-2.12-3.28A83.53,83.53,0,0,1,3.22,89.79,142,142,0,0,1,1.34,68.91Z"/>
        <path class="cls-5" d="M19.42,14,1.34,68.91c0-.49,0-1,0-1.46A93.71,93.71,0,0,1,2.48,52.86,71.22,71.22,0,0,1,16.06,18.13,38.43,38.43,0,0,1,19.42,14Z"/>
        <path class="cls-3" d="M51,1.26,19.42,14a41.56,41.56,0,0,1,15-10.44A38.29,38.29,0,0,1,47.88,1.19C48.91,1.18,49.92,1.19,51,1.26Z"/>
        <path class="cls-4" d="M87,19.68,51,1.26a41.89,41.89,0,0,1,5.37.66,53.11,53.11,0,0,1,18.82,8A73.93,73.93,0,0,1,87,19.68Z"/>
        <path class="cls-2" d="M103.43,44.68,87,19.68c1,1,1.9,2,2.8,3A89.1,89.1,0,0,1,103.43,44.68Z"/>
        <path class="cls-6" d="M191,58.23h0L180.13,99a191.31,191.31,0,0,1-20.76,35.07c-2,2.59-3.91,5.16-6,7.71l0,.07h0c-1.62,2-3.26,4-5,5.92a113.92,113.92,0,0,1-10.06,10.66,212.83,212.83,0,0,1-26.43,21,9.09,9.09,0,0,1-4.08,1.28l-1.61.73a13.19,13.19,0,0,1-2.79.32h0L60.48,162.05l-.11-.06h0L16.14,122.25,1.34,68.91,19.42,14,51,1.26h0L87,19.68l16.47,25L136.8,14.34h0l43.43,11.09v.1s.05.06.07.1v0Z"/>
        <polygon class="cls-1" points="19.41 13.97 64.61 61.16 86.96 19.67 19.41 13.97"/>
        <polygon class="cls-5" points="103.43 44.68 86.96 74.48 64.61 61.16 86.96 19.68 103.43 44.68"/>
        <polygon class="cls-4" points="86.96 74.49 103.43 110.54 121.48 74.49 103.43 44.68 86.96 74.49"/>
        <polygon class="cls-6" points="103.43 110.54 86.96 139.14 103.43 181.79 121.48 139.14 103.43 110.54"/>
        <polygon class="cls-4" points="64.61 61.16 1.34 68.91 19.42 13.97 64.61 61.16"/>
        <polygon class="cls-2" points="64.61 61.16 60.35 117.98 86.96 74.49 64.61 61.16"/>
        <polygon class="cls-1" points="60.35 117.98 86.96 139.14 103.43 110.54 86.96 74.49 60.35 117.98"/>
        <polygon class="cls-2" points="103.43 110.54 121.48 74.49 153.37 106.37 121.48 139.14 103.43 110.54"/>
        <polygon class="cls-6" points="169.88 36.08 103.43 44.68 136.8 14.34 136.81 14.33 136.82 14.33 169.88 36.08"/>
        <polygon class="cls-3" points="121.48 74.49 169.88 36.08 103.43 44.68 121.48 74.49"/>
        <polygon class="cls-4" points="191 58.23 169.88 36.08 136.84 14.33 180.26 25.42 180.32 25.62 180.32 25.64 191 58.23"/>
        <polygon class="cls-5" points="191 58.23 191 58.24 180.13 98.99 153.37 106.37 121.48 74.48 169.88 36.08 191 58.23"/>
        <polygon class="cls-1" points="153.37 106.37 153.37 141.85 180.13 98.99 153.37 106.37"/>
        <polygon class="cls-3" points="153.37 141.85 121.48 139.14 153.37 106.37 153.37 141.85"/>
        <polygon class="cls-4" points="153.37 141.85 103.43 181.79 121.48 139.14 153.37 141.85"/>
        <polygon class="cls-3" points="64.61 61.16 16.14 122.25 1.34 68.91 64.61 61.16"/>
        <polygon class="cls-6" points="16.13 122.25 60.35 117.98 64.61 61.16 16.13 122.25"/>
        <polygon class="cls-5" points="60.35 117.98 60.35 161.99 16.14 122.25 60.35 117.98"/>
        <polygon class="cls-2" points="103.43 181.78 103.43 181.79 103.41 181.78 60.48 162.05 60.37 161.99 86.96 139.15 103.43 181.78"/>
        <polygon class="cls-3" points="60.35 117.98 60.35 161.98 86.96 139.14 60.35 117.98"/>
        <polygon class="cls-6" points="86.96 19.68 19.42 13.97 50.95 1.26 50.97 1.26 86.96 19.68"/>
      </g>
    </g>
  </g>
</svg>
