<?xml version="1.0" encoding="UTF-8" standalone="no"?>
<svg width="100%" height="100%" viewBox="0 0 192 150" version="1.1" xmlns="http://www.w3.org/2000/svg" style="fill-rule:evenodd;clip-rule:evenodd;stroke-linecap:round;stroke-linejoin:round;stroke-miterlimit:1.5;">
    <!-- Background Frame (Same as forum.svg) -->
    <g transform="matrix(0.973783,0,0,0.97943,4.07961,2.75886)">
        <path d="M185.4,24.939L185.4,122.578C185.4,134.512 175.655,144.2 163.653,144.2L24.932,144.2C12.93,144.2 3.185,134.512 3.185,122.578L3.185,24.939C3.185,13.005 12.93,3.317 24.932,3.317L163.653,3.317C175.655,3.317 185.4,13.005 185.4,24.939Z" style="fill:rgb(240,240,240);stroke:rgb(171,44,41);stroke-width:5.12px;"/>
    </g>
    <!-- Gutes Heart Icon (Full Color) -->
    <g transform="matrix(0.5,0,0,0.5,45,25)">
        <path d="M103.41,181.77a14,14,0,0,1-6.65-1.48l-7-2.92-10.71-5.13c-6.56-3.35-12.53-6.68-18.57-10.19Z" style="fill:#4a7628;"/>
        <path d="M191,58.23h0L180.13,99a191.31,191.31,0,0,1-20.76,35.07c-2,2.59-3.91,5.16-6,7.71l0,.07h0c-1.62,2-3.26,4-5,5.92a113.92,113.92,0,0,1-10.06,10.66,212.83,212.83,0,0,1-26.43,21,9.09,9.09,0,0,1-4.08,1.28l-1.61.73a13.19,13.19,0,0,1-2.79.32h0L60.48,162.05l-.11-.06h0L16.14,122.25,1.34,68.91,19.42,14,51,1.26h0L87,19.68l16.47,25L136.8,14.34h0l43.43,11.09v.1s.05.06.07.1v0Z" style="fill:#103a5d;"/>
        <polygon points="19.41 13.97 64.61 61.16 86.96 19.67 19.41 13.97" style="fill:#4a7628;"/>
        <polygon points="103.43 44.68 86.96 74.48 64.61 61.16 86.96 19.67 103.43 44.68" style="fill:#009bde;"/>
        <polygon points="86.96 74.49 103.43 110.54 121.48 74.49 103.43 44.68 86.96 74.49" style="fill:#ff4a51;"/>
        <polygon points="103.43 110.54 86.96 139.14 103.43 181.79 121.48 139.14 103.43 110.54" style="fill:#103a5d;"/>
        <polygon points="64.61 61.16 1.34 68.91 19.42 13.97 64.61 61.16" style="fill:#ff4a51;"/>
        <polygon points="64.61 61.16 60.35 117.98 86.96 74.49 64.61 61.16" style="fill:#ffce00;"/>
        <polygon points="60.35 117.98 86.96 139.14 103.43 110.54 86.96 74.49 60.35 117.98" style="fill:#4a7628;"/>
        <polygon points="103.43 110.54 121.48 74.49 153.37 106.37 121.48 139.14 103.43 110.54" style="fill:#ffce00;"/>
        <polygon points="169.88 36.08 103.43 44.68 136.8 14.34 169.88 36.08" style="fill:#103a5d;"/>
        <polygon points="121.48 74.49 169.88 36.08 103.43 44.68 121.48 74.49" style="fill:#ab2c29;"/>
        <polygon points="191 58.23 169.88 36.08 136.84 14.33 180.26 25.42 191 58.23" style="fill:#ff4a51;"/>
        <polygon points="191 58.23 180.13 98.99 153.37 106.37 121.48 74.48 169.88 36.08 191 58.23" style="fill:#009bde;"/>
        <polygon points="153.37 106.37 153.37 141.85 180.13 98.99 153.37 106.37" style="fill:#4a7628;"/>
        <polygon points="153.37 141.85 121.48 139.14 153.37 106.37 153.37 141.85" style="fill:#ab2c29;"/>
        <polygon points="153.37 141.85 103.43 181.79 121.48 139.14 153.37 141.85" style="fill:#ff4a51;"/>
        <polygon points="64.61 61.16 16.14 122.25 1.34 68.91 64.61 61.16" style="fill:#ab2c29;"/>
        <polygon points="16.13 122.25 60.35 117.98 64.61 61.16 16.13 122.25" style="fill:#103a5d;"/>
        <polygon points="60.35 117.98 60.35 161.99 16.14 122.25 60.35 117.98" style="fill:#009bde;"/>
        <polygon points="103.43 181.78 60.48 162.05 86.96 139.15 103.43 181.78" style="fill:#ffce00;"/>
        <polygon points="60.35 117.98 60.35 161.98 86.96 139.14 60.35 117.98" style="fill:#ab2c29;"/>
        <polygon points="86.96 19.68 19.42 13.97 50.95 1.26 86.96 19.68" style="fill:#103a5d;"/>
    </g>
</svg>
